
        <svg xmlns="http://www.w3.org/2000/svg" xmlns:xlink="http://www.w3.org/1999/xlink" version="1.1" width="3292.682926829268" height="1453.6695280444137" viewBox="0 0 3292.682926829268 1453.6695280444137">
			
			<g transform="scale(14.634146341463415) translate(10, 10)">
				<defs id="SvgjsDefs1011"/><g id="SvgjsG1012" featureKey="2ou6gm-0" transform="matrix(0.7990743145452839,0,0,0.7990743145452839,12.546633294681818,9.713317336240122)" fill="#fff"><path xmlns="http://www.w3.org/2000/svg" d="M89.821,57.615l-7.519-7.519l0.927-2.86c0.323-1.005-0.65-2.215-2.175-2.708c-1.526-0.495-3.028-0.088-3.354,0.917  l-0.012,0.037L54.107,21.9l4.067-4.068c1.139-1.137,1.133-2.976,0-4.109c-1.135-1.133-2.973-1.133-4.107,0l-4.068,4.069  l-4.069-4.069c-1.133-1.133-2.973-1.133-4.106,0s-1.138,2.973,0,4.109l4.067,4.067L22.437,45.355  c-0.387-0.935-1.832-1.307-3.309-0.828c-1.524,0.493-2.499,1.703-2.175,2.708l0.882,2.722l-7.657,7.657  c-1.134,1.136-1.134,2.975,0,4.109c1.133,1.133,2.973,1.133,4.106,0l5.562-5.562l9.669,29.836c0.327,1,1.826,1.413,3.352,0.919  c1.525-0.494,2.499-1.71,2.175-2.71L24.46,51.549L50,26.008l25.678,25.68L65.141,84.208c-0.323,1,0.65,2.216,2.176,2.71  c1.524,0.494,3.024,0.081,3.351-0.919l9.625-29.698l5.423,5.424c1.134,1.133,2.973,1.133,4.106,0  C90.955,60.59,90.955,58.751,89.821,57.615z"/></g><g id="SvgjsG1013" featureKey="kZnDdN-0" transform="matrix(0.7089182031104305,0,0,0.7089182031104305,104.43286564033478,40.888274286744085)" fill="#fff"><path d="M10.24 6 l0 1.56 l-3.88 0 l0 12.44 l-1.66 0 l0 -12.44 l-3.9 0 l0 -1.56 l9.44 0 z M19.1 5.800000000000001 c3.64 0 7.16 2.96 7.16 7.2 s-3.52 7.2 -7.16 7.2 c-3.66 0 -7.16 -2.96 -7.16 -7.2 s3.5 -7.2 7.16 -7.2 z M19.1 18.62 c2.74 0 5.44 -2.32 5.44 -5.62 s-2.7 -5.62 -5.44 -5.62 c-2.76 0 -5.44 2.32 -5.44 5.62 s2.68 5.62 5.44 5.62 z M32.92 6 c3.14 0 4.96 1.92 4.96 4.52 s-1.82 4.44 -4.96 4.44 l-2.9 0 l0 5.04 l-1.66 0 l0 -14 l4.56 0 z M32.88 13.48 c2.02 0 3.34 -1.04 3.34 -2.96 c0 -1.94 -1.32 -2.96 -3.34 -2.96 l-2.86 0 l0 5.92 l2.86 0 z M50.34 6 c3.14 0 4.96 1.92 4.96 4.52 s-1.82 4.44 -4.96 4.44 l-2.9 0 l0 5.04 l-1.66 0 l0 -14 l4.56 0 z M50.300000000000004 13.48 c2.02 0 3.34 -1.04 3.34 -2.96 c0 -1.94 -1.32 -2.96 -3.34 -2.96 l-2.86 0 l0 5.92 l2.86 0 z M67.48 20 l-1.8 0 l-3.54 -5.04 l-0.38 0 l-2.9 0 l0 5.04 l-1.66 0 l0 -14 l4.56 0 c3.14 0 4.96 1.92 4.96 4.52 c0 2 -1.08 3.56 -3 4.16 z M58.86000000000001 7.5600000000000005 l0 5.92 l2.86 0 c2.02 0 3.34 -1.04 3.34 -2.96 c0 -1.94 -1.32 -2.96 -3.34 -2.96 l-2.86 0 z M76.14000000000001 5.800000000000001 c3.64 0 7.16 2.96 7.16 7.2 s-3.52 7.2 -7.16 7.2 c-3.66 0 -7.16 -2.96 -7.16 -7.2 s3.5 -7.2 7.16 -7.2 z M76.14000000000001 18.62 c2.74 0 5.44 -2.32 5.44 -5.62 s-2.7 -5.62 -5.44 -5.62 c-2.76 0 -5.44 2.32 -5.44 5.62 s2.68 5.62 5.44 5.62 z M89.96000000000002 6 c3.14 0 4.96 1.92 4.96 4.52 s-1.82 4.44 -4.96 4.44 l-2.9 0 l0 5.04 l-1.66 0 l0 -14 l4.56 0 z M89.92000000000002 13.48 c2.02 0 3.34 -1.04 3.34 -2.96 c0 -1.94 -1.32 -2.96 -3.34 -2.96 l-2.86 0 l0 5.92 l2.86 0 z M98.48000000000002 18.44 l6.66 0 l0 1.56 l-7.06 0 l-1.26 0 l0 -14 l1.66 0 l6.48 0 l0 1.56 l-6.48 0 l0 4.64 l5.04 0 l0 1.52 l-5.04 0 l0 4.72 z M117.52000000000002 20 l-1.8 0 l-3.54 -5.04 l-0.38 0 l-2.9 0 l0 5.04 l-1.66 0 l0 -14 l4.56 0 c3.14 0 4.96 1.92 4.96 4.52 c0 2 -1.08 3.56 -3 4.16 z M108.90000000000002 7.5600000000000005 l0 5.92 l2.86 0 c2.02 0 3.34 -1.04 3.34 -2.96 c0 -1.94 -1.32 -2.96 -3.34 -2.96 l-2.86 0 z M128.36 6 l0 1.56 l-3.88 0 l0 12.44 l-1.66 0 l0 -12.44 l-3.9 0 l0 -1.56 l9.44 0 z M141.86 6 l-5.22 7.54 l0 6.46 l-1.66 0 l0 -6.46 l-5.22 -7.54 l1.9 0 l4.14 6.02 l4.16 -6.02 l1.9 0 z"/></g>
			</g>
		</svg>
	